<svg width="100%" height="100%" id="svg" viewBox="0 0 1440 590" xmlns="http://www.w3.org/2000/svg" 
class="transition duration-300 ease-in-out delay-150">
<defs>
<linearGradient id="gradient" x1="0%" y1="50%" x2="100%" y2="50%">
<stop offset="5%" stop-color="#335fc8"></stop><stop offset="95%" stop-color="#702cc8">
</stop>
</linearGradient>
</defs>
<path d="M 0,600 C 0,600 0,300 0,300 C 60.23011782032401,341.2928939617084 120.46023564064802,382.5857879234168 176,350 C 231.53976435935198,317.4142120765832 282.389175257732,210.94974226804123 337,199 C 391.610824742268,187.05025773195877 449.9830633284241,269.61524300441823 523,291 C 596.0169366715759,312.38475699558177 683.6785714285714,272.5892857142857 748,245 C 812.3214285714286,217.41071428571428 853.3026509572902,202.02761413843888 899,208 C 944.6973490427098,213.97238586156112 995.110824742268,241.30025773195874 1050,244 C 1104.889175257732,246.69974226804126 1164.2540500736377,224.77135493372606 1230,230 C 1295.7459499263623,235.22864506627394 1367.8729749631812,267.61432253313694 1440,300 C 1440,300 1440,600 1440,600 Z" stroke="none" stroke-width="0" fill="url(#gradient)" 
fill-opacity="1" 
class="transition-all duration-300 ease-in-out delay-150 path-0" transform="rotate(-180 720 300)">
</path>
</svg>